G04 #@! TF.GenerationSoftware,KiCad,Pcbnew,(5.1.5)-3*
G04 #@! TF.CreationDate,2020-11-10T19:03:26-08:00*
G04 #@! TF.ProjectId,quickfeather-expansion-board-duo,71756963-6b66-4656-9174-6865722d6578,rev?*
G04 #@! TF.SameCoordinates,Original*
G04 #@! TF.FileFunction,Legend,Bot*
G04 #@! TF.FilePolarity,Positive*
%FSLAX46Y46*%
G04 Gerber Fmt 4.6, Leading zero omitted, Abs format (unit mm)*
G04 Created by KiCad (PCBNEW (5.1.5)-3) date 2020-11-10 19:03:26*
%MOMM*%
%LPD*%
G04 APERTURE LIST*
%ADD10C,0.150000*%
G04 APERTURE END LIST*
D10*
X172885238Y-45442619D02*
X172980476Y-45395000D01*
X173075714Y-45299761D01*
X173218571Y-45156904D01*
X173313809Y-45109285D01*
X173409047Y-45109285D01*
X173361428Y-45347380D02*
X173456666Y-45299761D01*
X173551904Y-45204523D01*
X173599523Y-45014047D01*
X173599523Y-44680714D01*
X173551904Y-44490238D01*
X173456666Y-44395000D01*
X173361428Y-44347380D01*
X173170952Y-44347380D01*
X173075714Y-44395000D01*
X172980476Y-44490238D01*
X172932857Y-44680714D01*
X172932857Y-45014047D01*
X172980476Y-45204523D01*
X173075714Y-45299761D01*
X173170952Y-45347380D01*
X173361428Y-45347380D01*
X172075714Y-44680714D02*
X172075714Y-45347380D01*
X172504285Y-44680714D02*
X172504285Y-45204523D01*
X172456666Y-45299761D01*
X172361428Y-45347380D01*
X172218571Y-45347380D01*
X172123333Y-45299761D01*
X172075714Y-45252142D01*
X171599523Y-45347380D02*
X171599523Y-44680714D01*
X171599523Y-44347380D02*
X171647142Y-44395000D01*
X171599523Y-44442619D01*
X171551904Y-44395000D01*
X171599523Y-44347380D01*
X171599523Y-44442619D01*
X170694761Y-45299761D02*
X170790000Y-45347380D01*
X170980476Y-45347380D01*
X171075714Y-45299761D01*
X171123333Y-45252142D01*
X171170952Y-45156904D01*
X171170952Y-44871190D01*
X171123333Y-44775952D01*
X171075714Y-44728333D01*
X170980476Y-44680714D01*
X170790000Y-44680714D01*
X170694761Y-44728333D01*
X170266190Y-45347380D02*
X170266190Y-44347380D01*
X170170952Y-44966428D02*
X169885238Y-45347380D01*
X169885238Y-44680714D02*
X170266190Y-45061666D01*
X168980476Y-45347380D02*
X169456666Y-45347380D01*
X169456666Y-44347380D01*
X168504285Y-45347380D02*
X168599523Y-45299761D01*
X168647142Y-45252142D01*
X168694761Y-45156904D01*
X168694761Y-44871190D01*
X168647142Y-44775952D01*
X168599523Y-44728333D01*
X168504285Y-44680714D01*
X168361428Y-44680714D01*
X168266190Y-44728333D01*
X168218571Y-44775952D01*
X168170952Y-44871190D01*
X168170952Y-45156904D01*
X168218571Y-45252142D01*
X168266190Y-45299761D01*
X168361428Y-45347380D01*
X168504285Y-45347380D01*
X167313809Y-44680714D02*
X167313809Y-45490238D01*
X167361428Y-45585476D01*
X167409047Y-45633095D01*
X167504285Y-45680714D01*
X167647142Y-45680714D01*
X167742380Y-45633095D01*
X167313809Y-45299761D02*
X167409047Y-45347380D01*
X167599523Y-45347380D01*
X167694761Y-45299761D01*
X167742380Y-45252142D01*
X167790000Y-45156904D01*
X167790000Y-44871190D01*
X167742380Y-44775952D01*
X167694761Y-44728333D01*
X167599523Y-44680714D01*
X167409047Y-44680714D01*
X167313809Y-44728333D01*
X166837619Y-45347380D02*
X166837619Y-44680714D01*
X166837619Y-44347380D02*
X166885238Y-44395000D01*
X166837619Y-44442619D01*
X166790000Y-44395000D01*
X166837619Y-44347380D01*
X166837619Y-44442619D01*
X165932857Y-45299761D02*
X166028095Y-45347380D01*
X166218571Y-45347380D01*
X166313809Y-45299761D01*
X166361428Y-45252142D01*
X166409047Y-45156904D01*
X166409047Y-44871190D01*
X166361428Y-44775952D01*
X166313809Y-44728333D01*
X166218571Y-44680714D01*
X166028095Y-44680714D01*
X165932857Y-44728333D01*
X164742380Y-44823571D02*
X164409047Y-44823571D01*
X164266190Y-45347380D02*
X164742380Y-45347380D01*
X164742380Y-44347380D01*
X164266190Y-44347380D01*
X163932857Y-45347380D02*
X163409047Y-44680714D01*
X163932857Y-44680714D02*
X163409047Y-45347380D01*
X163028095Y-44680714D02*
X163028095Y-45680714D01*
X163028095Y-44728333D02*
X162932857Y-44680714D01*
X162742380Y-44680714D01*
X162647142Y-44728333D01*
X162599523Y-44775952D01*
X162551904Y-44871190D01*
X162551904Y-45156904D01*
X162599523Y-45252142D01*
X162647142Y-45299761D01*
X162742380Y-45347380D01*
X162932857Y-45347380D01*
X163028095Y-45299761D01*
X161694761Y-45347380D02*
X161694761Y-44823571D01*
X161742380Y-44728333D01*
X161837619Y-44680714D01*
X162028095Y-44680714D01*
X162123333Y-44728333D01*
X161694761Y-45299761D02*
X161790000Y-45347380D01*
X162028095Y-45347380D01*
X162123333Y-45299761D01*
X162170952Y-45204523D01*
X162170952Y-45109285D01*
X162123333Y-45014047D01*
X162028095Y-44966428D01*
X161790000Y-44966428D01*
X161694761Y-44918809D01*
X161218571Y-44680714D02*
X161218571Y-45347380D01*
X161218571Y-44775952D02*
X161170952Y-44728333D01*
X161075714Y-44680714D01*
X160932857Y-44680714D01*
X160837619Y-44728333D01*
X160790000Y-44823571D01*
X160790000Y-45347380D01*
X160361428Y-45299761D02*
X160266190Y-45347380D01*
X160075714Y-45347380D01*
X159980476Y-45299761D01*
X159932857Y-45204523D01*
X159932857Y-45156904D01*
X159980476Y-45061666D01*
X160075714Y-45014047D01*
X160218571Y-45014047D01*
X160313809Y-44966428D01*
X160361428Y-44871190D01*
X160361428Y-44823571D01*
X160313809Y-44728333D01*
X160218571Y-44680714D01*
X160075714Y-44680714D01*
X159980476Y-44728333D01*
X159504285Y-45347380D02*
X159504285Y-44680714D01*
X159504285Y-44347380D02*
X159551904Y-44395000D01*
X159504285Y-44442619D01*
X159456666Y-44395000D01*
X159504285Y-44347380D01*
X159504285Y-44442619D01*
X158885238Y-45347380D02*
X158980476Y-45299761D01*
X159028095Y-45252142D01*
X159075714Y-45156904D01*
X159075714Y-44871190D01*
X159028095Y-44775952D01*
X158980476Y-44728333D01*
X158885238Y-44680714D01*
X158742380Y-44680714D01*
X158647142Y-44728333D01*
X158599523Y-44775952D01*
X158551904Y-44871190D01*
X158551904Y-45156904D01*
X158599523Y-45252142D01*
X158647142Y-45299761D01*
X158742380Y-45347380D01*
X158885238Y-45347380D01*
X158123333Y-44680714D02*
X158123333Y-45347380D01*
X158123333Y-44775952D02*
X158075714Y-44728333D01*
X157980476Y-44680714D01*
X157837619Y-44680714D01*
X157742380Y-44728333D01*
X157694761Y-44823571D01*
X157694761Y-45347380D01*
X156123333Y-44823571D02*
X155980476Y-44871190D01*
X155932857Y-44918809D01*
X155885238Y-45014047D01*
X155885238Y-45156904D01*
X155932857Y-45252142D01*
X155980476Y-45299761D01*
X156075714Y-45347380D01*
X156456666Y-45347380D01*
X156456666Y-44347380D01*
X156123333Y-44347380D01*
X156028095Y-44395000D01*
X155980476Y-44442619D01*
X155932857Y-44537857D01*
X155932857Y-44633095D01*
X155980476Y-44728333D01*
X156028095Y-44775952D01*
X156123333Y-44823571D01*
X156456666Y-44823571D01*
X155313809Y-45347380D02*
X155409047Y-45299761D01*
X155456666Y-45252142D01*
X155504285Y-45156904D01*
X155504285Y-44871190D01*
X155456666Y-44775952D01*
X155409047Y-44728333D01*
X155313809Y-44680714D01*
X155170952Y-44680714D01*
X155075714Y-44728333D01*
X155028095Y-44775952D01*
X154980476Y-44871190D01*
X154980476Y-45156904D01*
X155028095Y-45252142D01*
X155075714Y-45299761D01*
X155170952Y-45347380D01*
X155313809Y-45347380D01*
X154123333Y-45347380D02*
X154123333Y-44823571D01*
X154170952Y-44728333D01*
X154266190Y-44680714D01*
X154456666Y-44680714D01*
X154551904Y-44728333D01*
X154123333Y-45299761D02*
X154218571Y-45347380D01*
X154456666Y-45347380D01*
X154551904Y-45299761D01*
X154599523Y-45204523D01*
X154599523Y-45109285D01*
X154551904Y-45014047D01*
X154456666Y-44966428D01*
X154218571Y-44966428D01*
X154123333Y-44918809D01*
X153647142Y-45347380D02*
X153647142Y-44680714D01*
X153647142Y-44871190D02*
X153599523Y-44775952D01*
X153551904Y-44728333D01*
X153456666Y-44680714D01*
X153361428Y-44680714D01*
X152599523Y-45347380D02*
X152599523Y-44347380D01*
X152599523Y-45299761D02*
X152694761Y-45347380D01*
X152885238Y-45347380D01*
X152980476Y-45299761D01*
X153028095Y-45252142D01*
X153075714Y-45156904D01*
X153075714Y-44871190D01*
X153028095Y-44775952D01*
X152980476Y-44728333D01*
X152885238Y-44680714D01*
X152694761Y-44680714D01*
X152599523Y-44728333D01*
X151361428Y-45347380D02*
X151361428Y-44347380D01*
X151123333Y-44347380D01*
X150980476Y-44395000D01*
X150885238Y-44490238D01*
X150837619Y-44585476D01*
X150790000Y-44775952D01*
X150790000Y-44918809D01*
X150837619Y-45109285D01*
X150885238Y-45204523D01*
X150980476Y-45299761D01*
X151123333Y-45347380D01*
X151361428Y-45347380D01*
X149932857Y-44680714D02*
X149932857Y-45347380D01*
X150361428Y-44680714D02*
X150361428Y-45204523D01*
X150313809Y-45299761D01*
X150218571Y-45347380D01*
X150075714Y-45347380D01*
X149980476Y-45299761D01*
X149932857Y-45252142D01*
X149313809Y-45347380D02*
X149409047Y-45299761D01*
X149456666Y-45252142D01*
X149504285Y-45156904D01*
X149504285Y-44871190D01*
X149456666Y-44775952D01*
X149409047Y-44728333D01*
X149313809Y-44680714D01*
X149170952Y-44680714D01*
X149075714Y-44728333D01*
X149028095Y-44775952D01*
X148980476Y-44871190D01*
X148980476Y-45156904D01*
X149028095Y-45252142D01*
X149075714Y-45299761D01*
X149170952Y-45347380D01*
X149313809Y-45347380D01*
X163599523Y-46997380D02*
X163932857Y-46521190D01*
X164170952Y-46997380D02*
X164170952Y-45997380D01*
X163790000Y-45997380D01*
X163694761Y-46045000D01*
X163647142Y-46092619D01*
X163599523Y-46187857D01*
X163599523Y-46330714D01*
X163647142Y-46425952D01*
X163694761Y-46473571D01*
X163790000Y-46521190D01*
X164170952Y-46521190D01*
X162790000Y-46949761D02*
X162885238Y-46997380D01*
X163075714Y-46997380D01*
X163170952Y-46949761D01*
X163218571Y-46854523D01*
X163218571Y-46473571D01*
X163170952Y-46378333D01*
X163075714Y-46330714D01*
X162885238Y-46330714D01*
X162790000Y-46378333D01*
X162742380Y-46473571D01*
X162742380Y-46568809D01*
X163218571Y-46664047D01*
X162409047Y-46330714D02*
X162170952Y-46997380D01*
X161932857Y-46330714D01*
X161551904Y-46902142D02*
X161504285Y-46949761D01*
X161551904Y-46997380D01*
X161599523Y-46949761D01*
X161551904Y-46902142D01*
X161551904Y-46997380D01*
X161551904Y-46378333D02*
X161504285Y-46425952D01*
X161551904Y-46473571D01*
X161599523Y-46425952D01*
X161551904Y-46378333D01*
X161551904Y-46473571D01*
X159790000Y-46997380D02*
X160361428Y-46997380D01*
X160075714Y-46997380D02*
X160075714Y-45997380D01*
X160170952Y-46140238D01*
X160266190Y-46235476D01*
X160361428Y-46283095D01*
X159361428Y-46902142D02*
X159313809Y-46949761D01*
X159361428Y-46997380D01*
X159409047Y-46949761D01*
X159361428Y-46902142D01*
X159361428Y-46997380D01*
X158694761Y-45997380D02*
X158599523Y-45997380D01*
X158504285Y-46045000D01*
X158456666Y-46092619D01*
X158409047Y-46187857D01*
X158361428Y-46378333D01*
X158361428Y-46616428D01*
X158409047Y-46806904D01*
X158456666Y-46902142D01*
X158504285Y-46949761D01*
X158599523Y-46997380D01*
X158694761Y-46997380D01*
X158790000Y-46949761D01*
X158837619Y-46902142D01*
X158885238Y-46806904D01*
X158932857Y-46616428D01*
X158932857Y-46378333D01*
X158885238Y-46187857D01*
X158837619Y-46092619D01*
X158790000Y-46045000D01*
X158694761Y-45997380D01*
M02*
