G04 #@! TF.GenerationSoftware,KiCad,Pcbnew,(5.1.5)-3*
G04 #@! TF.CreationDate,2020-11-10T19:03:26-08:00*
G04 #@! TF.ProjectId,quickfeather-expansion-board-duo,71756963-6b66-4656-9174-6865722d6578,rev?*
G04 #@! TF.SameCoordinates,Original*
G04 #@! TF.FileFunction,Legend,Top*
G04 #@! TF.FilePolarity,Positive*
%FSLAX46Y46*%
G04 Gerber Fmt 4.6, Leading zero omitted, Abs format (unit mm)*
G04 Created by KiCad (PCBNEW (5.1.5)-3) date 2020-11-10 19:03:26*
%MOMM*%
%LPD*%
G04 APERTURE LIST*
%ADD10C,0.120000*%
%ADD11C,0.150000*%
G04 APERTURE END LIST*
D10*
X106680000Y-38100000D02*
X86360000Y-38100000D01*
X106680000Y-99060000D02*
X83820000Y-99060000D01*
X142240000Y-99060000D02*
X119380000Y-99060000D01*
X142240000Y-38100000D02*
X121920000Y-38100000D01*
X80240000Y-77470000D02*
X77240000Y-77470000D01*
X77240000Y-75100000D02*
X80240000Y-75100000D01*
X77240000Y-84920000D02*
X77240000Y-75100000D01*
X80240000Y-84920000D02*
X77240000Y-84920000D01*
X80240000Y-75100000D02*
X80240000Y-84920000D01*
X115800000Y-77470000D02*
X112800000Y-77470000D01*
X112800000Y-75100000D02*
X115800000Y-75100000D01*
X112800000Y-84920000D02*
X112800000Y-75100000D01*
X115800000Y-84920000D02*
X112800000Y-84920000D01*
X115800000Y-75100000D02*
X115800000Y-84920000D01*
X177800000Y-76200000D02*
X157480000Y-76200000D01*
X177800000Y-38100000D02*
X157480000Y-38100000D01*
X183920000Y-96520000D02*
X186920000Y-96520000D01*
X186920000Y-98890000D02*
X183920000Y-98890000D01*
X186920000Y-83990000D02*
X186920000Y-98890000D01*
X183920000Y-83990000D02*
X186920000Y-83990000D01*
X183920000Y-98890000D02*
X183920000Y-83990000D01*
D11*
X118740000Y-105910000D02*
X119265000Y-106435000D01*
X119790000Y-105910000D02*
X118740000Y-105910000D01*
X119265000Y-106435000D02*
X119790000Y-105910000D01*
D10*
X71120000Y-38100000D02*
X50800000Y-38100000D01*
X160190000Y-107603333D02*
X160190000Y-109449999D01*
X160550000Y-107603333D02*
X160190000Y-107603333D01*
X160550000Y-105756667D02*
X160550000Y-107603333D01*
X160190000Y-105756667D02*
X160550000Y-105756667D01*
X160190000Y-103910000D02*
X160190000Y-105756667D01*
X175090000Y-103910001D02*
X160190000Y-103910000D01*
X175090000Y-109450000D02*
X175090000Y-103910001D01*
X160190000Y-109449999D02*
X175090000Y-109450000D01*
X73830000Y-109449999D02*
X88730000Y-109450000D01*
X88730000Y-109450000D02*
X88730000Y-103910001D01*
X88730000Y-103910001D02*
X73830000Y-103910000D01*
X73830000Y-103910000D02*
X73830000Y-105756667D01*
X73830000Y-105756667D02*
X74190000Y-105756667D01*
X74190000Y-105756667D02*
X74190000Y-107603333D01*
X74190000Y-107603333D02*
X73830000Y-107603333D01*
X73830000Y-107603333D02*
X73830000Y-109449999D01*
X143340000Y-105756667D02*
X143340000Y-103910001D01*
X142980000Y-105756667D02*
X143340000Y-105756667D01*
X142980000Y-107603333D02*
X142980000Y-105756667D01*
X143340000Y-107603333D02*
X142980000Y-107603333D01*
X143340000Y-109450000D02*
X143340000Y-107603333D01*
X130980000Y-109449999D02*
X143340000Y-109450000D01*
X130980000Y-103910000D02*
X130980000Y-109449999D01*
X143340000Y-103910001D02*
X130980000Y-103910000D01*
X64770000Y-91210000D02*
X64770000Y-94210000D01*
X62400000Y-94210000D02*
X62400000Y-91210000D01*
X72220000Y-94210000D02*
X62400000Y-94210000D01*
X72220000Y-91210000D02*
X72220000Y-94210000D01*
X62400000Y-91210000D02*
X72220000Y-91210000D01*
X49700000Y-91210000D02*
X59520000Y-91210000D01*
X59520000Y-91210000D02*
X59520000Y-94210000D01*
X59520000Y-94210000D02*
X49700000Y-94210000D01*
X49700000Y-94210000D02*
X49700000Y-91210000D01*
X52070000Y-91210000D02*
X52070000Y-94210000D01*
X72220000Y-90400000D02*
X62400000Y-90400000D01*
X62400000Y-90400000D02*
X62400000Y-87400000D01*
X62400000Y-87400000D02*
X72220000Y-87400000D01*
X72220000Y-87400000D02*
X72220000Y-90400000D01*
X69850000Y-90400000D02*
X69850000Y-87400000D01*
X166200000Y-81510000D02*
X156380000Y-81510000D01*
X156380000Y-81510000D02*
X156380000Y-78510000D01*
X156380000Y-78510000D02*
X166200000Y-78510000D01*
X166200000Y-78510000D02*
X166200000Y-81510000D01*
X163830000Y-81510000D02*
X163830000Y-78510000D01*
X57150000Y-109450000D02*
X57150000Y-106450000D01*
X59520000Y-106450000D02*
X59520000Y-109450000D01*
X49700000Y-106450000D02*
X59520000Y-106450000D01*
X49700000Y-109450000D02*
X49700000Y-106450000D01*
X59520000Y-109450000D02*
X49700000Y-109450000D01*
X59520000Y-90400000D02*
X49700000Y-90400000D01*
X49700000Y-90400000D02*
X49700000Y-87400000D01*
X49700000Y-87400000D02*
X59520000Y-87400000D01*
X59520000Y-87400000D02*
X59520000Y-90400000D01*
X57150000Y-90400000D02*
X57150000Y-87400000D01*
X163830000Y-85320000D02*
X163830000Y-82320000D01*
X166200000Y-82320000D02*
X166200000Y-85320000D01*
X156380000Y-82320000D02*
X166200000Y-82320000D01*
X156380000Y-85320000D02*
X156380000Y-82320000D01*
X166200000Y-85320000D02*
X156380000Y-85320000D01*
D11*
X76780000Y-48810000D02*
X77305000Y-48285000D01*
X76780000Y-47760000D02*
X76780000Y-48810000D01*
X77305000Y-48285000D02*
X76780000Y-47760000D01*
X112785000Y-48285000D02*
X112260000Y-47760000D01*
X112260000Y-47760000D02*
X112260000Y-48810000D01*
X112260000Y-48810000D02*
X112785000Y-48285000D01*
X51350000Y-101020000D02*
X50825000Y-100495000D01*
X50300000Y-101020000D02*
X51350000Y-101020000D01*
X50825000Y-100495000D02*
X50300000Y-101020000D01*
X44205000Y-48285000D02*
X43680000Y-47760000D01*
X43680000Y-47760000D02*
X43680000Y-48810000D01*
X43680000Y-48810000D02*
X44205000Y-48285000D01*
X116260000Y-55330000D02*
X115735000Y-55855000D01*
X116260000Y-56380000D02*
X116260000Y-55330000D01*
X115735000Y-55855000D02*
X116260000Y-56380000D01*
X88352380Y-58753333D02*
X89066666Y-58753333D01*
X89209523Y-58800952D01*
X89304761Y-58896190D01*
X89352380Y-59039047D01*
X89352380Y-59134285D01*
X89352380Y-57753333D02*
X89352380Y-58324761D01*
X89352380Y-58039047D02*
X88352380Y-58039047D01*
X88495238Y-58134285D01*
X88590476Y-58229523D01*
X88638095Y-58324761D01*
X123912380Y-58753333D02*
X124626666Y-58753333D01*
X124769523Y-58800952D01*
X124864761Y-58896190D01*
X124912380Y-59039047D01*
X124912380Y-59134285D01*
X124245714Y-57848571D02*
X124912380Y-57848571D01*
X123864761Y-58086666D02*
X124579047Y-58324761D01*
X124579047Y-57705714D01*
X75692380Y-80343333D02*
X76406666Y-80343333D01*
X76549523Y-80390952D01*
X76644761Y-80486190D01*
X76692380Y-80629047D01*
X76692380Y-80724285D01*
X75787619Y-79914761D02*
X75740000Y-79867142D01*
X75692380Y-79771904D01*
X75692380Y-79533809D01*
X75740000Y-79438571D01*
X75787619Y-79390952D01*
X75882857Y-79343333D01*
X75978095Y-79343333D01*
X76120952Y-79390952D01*
X76692380Y-79962380D01*
X76692380Y-79343333D01*
X111252380Y-80343333D02*
X111966666Y-80343333D01*
X112109523Y-80390952D01*
X112204761Y-80486190D01*
X112252380Y-80629047D01*
X112252380Y-80724285D01*
X111252380Y-79962380D02*
X111252380Y-79343333D01*
X111633333Y-79676666D01*
X111633333Y-79533809D01*
X111680952Y-79438571D01*
X111728571Y-79390952D01*
X111823809Y-79343333D01*
X112061904Y-79343333D01*
X112157142Y-79390952D01*
X112204761Y-79438571D01*
X112252380Y-79533809D01*
X112252380Y-79819523D01*
X112204761Y-79914761D01*
X112157142Y-79962380D01*
X159472380Y-53673333D02*
X160186666Y-53673333D01*
X160329523Y-53720952D01*
X160424761Y-53816190D01*
X160472380Y-53959047D01*
X160472380Y-54054285D01*
X159472380Y-52720952D02*
X159472380Y-53197142D01*
X159948571Y-53244761D01*
X159900952Y-53197142D01*
X159853333Y-53101904D01*
X159853333Y-52863809D01*
X159900952Y-52768571D01*
X159948571Y-52720952D01*
X160043809Y-52673333D01*
X160281904Y-52673333D01*
X160377142Y-52720952D01*
X160424761Y-52768571D01*
X160472380Y-52863809D01*
X160472380Y-53101904D01*
X160424761Y-53197142D01*
X160377142Y-53244761D01*
X187412380Y-98123333D02*
X188126666Y-98123333D01*
X188269523Y-98170952D01*
X188364761Y-98266190D01*
X188412380Y-98409047D01*
X188412380Y-98504285D01*
X187412380Y-97218571D02*
X187412380Y-97409047D01*
X187460000Y-97504285D01*
X187507619Y-97551904D01*
X187650476Y-97647142D01*
X187840952Y-97694761D01*
X188221904Y-97694761D01*
X188317142Y-97647142D01*
X188364761Y-97599523D01*
X188412380Y-97504285D01*
X188412380Y-97313809D01*
X188364761Y-97218571D01*
X188317142Y-97170952D01*
X188221904Y-97123333D01*
X187983809Y-97123333D01*
X187888571Y-97170952D01*
X187840952Y-97218571D01*
X187793333Y-97313809D01*
X187793333Y-97504285D01*
X187840952Y-97599523D01*
X187888571Y-97647142D01*
X187983809Y-97694761D01*
X121172380Y-107823333D02*
X121886666Y-107823333D01*
X122029523Y-107870952D01*
X122124761Y-107966190D01*
X122172380Y-108109047D01*
X122172380Y-108204285D01*
X121172380Y-107442380D02*
X121172380Y-106775714D01*
X122172380Y-107204285D01*
X52792380Y-58753333D02*
X53506666Y-58753333D01*
X53649523Y-58800952D01*
X53744761Y-58896190D01*
X53792380Y-59039047D01*
X53792380Y-59134285D01*
X53220952Y-58134285D02*
X53173333Y-58229523D01*
X53125714Y-58277142D01*
X53030476Y-58324761D01*
X52982857Y-58324761D01*
X52887619Y-58277142D01*
X52840000Y-58229523D01*
X52792380Y-58134285D01*
X52792380Y-57943809D01*
X52840000Y-57848571D01*
X52887619Y-57800952D01*
X52982857Y-57753333D01*
X53030476Y-57753333D01*
X53125714Y-57800952D01*
X53173333Y-57848571D01*
X53220952Y-57943809D01*
X53220952Y-58134285D01*
X53268571Y-58229523D01*
X53316190Y-58277142D01*
X53411428Y-58324761D01*
X53601904Y-58324761D01*
X53697142Y-58277142D01*
X53744761Y-58229523D01*
X53792380Y-58134285D01*
X53792380Y-57943809D01*
X53744761Y-57848571D01*
X53697142Y-57800952D01*
X53601904Y-57753333D01*
X53411428Y-57753333D01*
X53316190Y-57800952D01*
X53268571Y-57848571D01*
X53220952Y-57943809D01*
X158642380Y-107013333D02*
X159356666Y-107013333D01*
X159499523Y-107060952D01*
X159594761Y-107156190D01*
X159642380Y-107299047D01*
X159642380Y-107394285D01*
X159642380Y-106489523D02*
X159642380Y-106299047D01*
X159594761Y-106203809D01*
X159547142Y-106156190D01*
X159404285Y-106060952D01*
X159213809Y-106013333D01*
X158832857Y-106013333D01*
X158737619Y-106060952D01*
X158690000Y-106108571D01*
X158642380Y-106203809D01*
X158642380Y-106394285D01*
X158690000Y-106489523D01*
X158737619Y-106537142D01*
X158832857Y-106584761D01*
X159070952Y-106584761D01*
X159166190Y-106537142D01*
X159213809Y-106489523D01*
X159261428Y-106394285D01*
X159261428Y-106203809D01*
X159213809Y-106108571D01*
X159166190Y-106060952D01*
X159070952Y-106013333D01*
X72282380Y-107489523D02*
X72996666Y-107489523D01*
X73139523Y-107537142D01*
X73234761Y-107632380D01*
X73282380Y-107775238D01*
X73282380Y-107870476D01*
X73282380Y-106489523D02*
X73282380Y-107060952D01*
X73282380Y-106775238D02*
X72282380Y-106775238D01*
X72425238Y-106870476D01*
X72520476Y-106965714D01*
X72568095Y-107060952D01*
X72282380Y-105870476D02*
X72282380Y-105775238D01*
X72330000Y-105680000D01*
X72377619Y-105632380D01*
X72472857Y-105584761D01*
X72663333Y-105537142D01*
X72901428Y-105537142D01*
X73091904Y-105584761D01*
X73187142Y-105632380D01*
X73234761Y-105680000D01*
X73282380Y-105775238D01*
X73282380Y-105870476D01*
X73234761Y-105965714D01*
X73187142Y-106013333D01*
X73091904Y-106060952D01*
X72901428Y-106108571D01*
X72663333Y-106108571D01*
X72472857Y-106060952D01*
X72377619Y-106013333D01*
X72330000Y-105965714D01*
X72282380Y-105870476D01*
X143792380Y-107489523D02*
X144506666Y-107489523D01*
X144649523Y-107537142D01*
X144744761Y-107632380D01*
X144792380Y-107775238D01*
X144792380Y-107870476D01*
X144792380Y-106489523D02*
X144792380Y-107060952D01*
X144792380Y-106775238D02*
X143792380Y-106775238D01*
X143935238Y-106870476D01*
X144030476Y-106965714D01*
X144078095Y-107060952D01*
X144792380Y-105537142D02*
X144792380Y-106108571D01*
X144792380Y-105822857D02*
X143792380Y-105822857D01*
X143935238Y-105918095D01*
X144030476Y-106013333D01*
X144078095Y-106108571D01*
X62690476Y-94662380D02*
X62690476Y-95376666D01*
X62642857Y-95519523D01*
X62547619Y-95614761D01*
X62404761Y-95662380D01*
X62309523Y-95662380D01*
X63690476Y-95662380D02*
X63119047Y-95662380D01*
X63404761Y-95662380D02*
X63404761Y-94662380D01*
X63309523Y-94805238D01*
X63214285Y-94900476D01*
X63119047Y-94948095D01*
X64071428Y-94757619D02*
X64119047Y-94710000D01*
X64214285Y-94662380D01*
X64452380Y-94662380D01*
X64547619Y-94710000D01*
X64595238Y-94757619D01*
X64642857Y-94852857D01*
X64642857Y-94948095D01*
X64595238Y-95090952D01*
X64023809Y-95662380D01*
X64642857Y-95662380D01*
X49990476Y-94662380D02*
X49990476Y-95376666D01*
X49942857Y-95519523D01*
X49847619Y-95614761D01*
X49704761Y-95662380D01*
X49609523Y-95662380D01*
X50990476Y-95662380D02*
X50419047Y-95662380D01*
X50704761Y-95662380D02*
X50704761Y-94662380D01*
X50609523Y-94805238D01*
X50514285Y-94900476D01*
X50419047Y-94948095D01*
X51323809Y-94662380D02*
X51942857Y-94662380D01*
X51609523Y-95043333D01*
X51752380Y-95043333D01*
X51847619Y-95090952D01*
X51895238Y-95138571D01*
X51942857Y-95233809D01*
X51942857Y-95471904D01*
X51895238Y-95567142D01*
X51847619Y-95614761D01*
X51752380Y-95662380D01*
X51466666Y-95662380D01*
X51371428Y-95614761D01*
X51323809Y-95567142D01*
X62690476Y-85812380D02*
X62690476Y-86526666D01*
X62642857Y-86669523D01*
X62547619Y-86764761D01*
X62404761Y-86812380D01*
X62309523Y-86812380D01*
X63690476Y-86812380D02*
X63119047Y-86812380D01*
X63404761Y-86812380D02*
X63404761Y-85812380D01*
X63309523Y-85955238D01*
X63214285Y-86050476D01*
X63119047Y-86098095D01*
X64547619Y-86145714D02*
X64547619Y-86812380D01*
X64309523Y-85764761D02*
X64071428Y-86479047D01*
X64690476Y-86479047D01*
X166830476Y-79462380D02*
X166830476Y-80176666D01*
X166782857Y-80319523D01*
X166687619Y-80414761D01*
X166544761Y-80462380D01*
X166449523Y-80462380D01*
X167830476Y-80462380D02*
X167259047Y-80462380D01*
X167544761Y-80462380D02*
X167544761Y-79462380D01*
X167449523Y-79605238D01*
X167354285Y-79700476D01*
X167259047Y-79748095D01*
X168735238Y-79462380D02*
X168259047Y-79462380D01*
X168211428Y-79938571D01*
X168259047Y-79890952D01*
X168354285Y-79843333D01*
X168592380Y-79843333D01*
X168687619Y-79890952D01*
X168735238Y-79938571D01*
X168782857Y-80033809D01*
X168782857Y-80271904D01*
X168735238Y-80367142D01*
X168687619Y-80414761D01*
X168592380Y-80462380D01*
X168354285Y-80462380D01*
X168259047Y-80414761D01*
X168211428Y-80367142D01*
X53800476Y-104902380D02*
X53800476Y-105616666D01*
X53752857Y-105759523D01*
X53657619Y-105854761D01*
X53514761Y-105902380D01*
X53419523Y-105902380D01*
X54800476Y-105902380D02*
X54229047Y-105902380D01*
X54514761Y-105902380D02*
X54514761Y-104902380D01*
X54419523Y-105045238D01*
X54324285Y-105140476D01*
X54229047Y-105188095D01*
X55657619Y-104902380D02*
X55467142Y-104902380D01*
X55371904Y-104950000D01*
X55324285Y-104997619D01*
X55229047Y-105140476D01*
X55181428Y-105330952D01*
X55181428Y-105711904D01*
X55229047Y-105807142D01*
X55276666Y-105854761D01*
X55371904Y-105902380D01*
X55562380Y-105902380D01*
X55657619Y-105854761D01*
X55705238Y-105807142D01*
X55752857Y-105711904D01*
X55752857Y-105473809D01*
X55705238Y-105378571D01*
X55657619Y-105330952D01*
X55562380Y-105283333D01*
X55371904Y-105283333D01*
X55276666Y-105330952D01*
X55229047Y-105378571D01*
X55181428Y-105473809D01*
X49990476Y-85812380D02*
X49990476Y-86526666D01*
X49942857Y-86669523D01*
X49847619Y-86764761D01*
X49704761Y-86812380D01*
X49609523Y-86812380D01*
X50990476Y-86812380D02*
X50419047Y-86812380D01*
X50704761Y-86812380D02*
X50704761Y-85812380D01*
X50609523Y-85955238D01*
X50514285Y-86050476D01*
X50419047Y-86098095D01*
X51323809Y-85812380D02*
X51990476Y-85812380D01*
X51561904Y-86812380D01*
X166830476Y-83272380D02*
X166830476Y-83986666D01*
X166782857Y-84129523D01*
X166687619Y-84224761D01*
X166544761Y-84272380D01*
X166449523Y-84272380D01*
X167830476Y-84272380D02*
X167259047Y-84272380D01*
X167544761Y-84272380D02*
X167544761Y-83272380D01*
X167449523Y-83415238D01*
X167354285Y-83510476D01*
X167259047Y-83558095D01*
X168401904Y-83700952D02*
X168306666Y-83653333D01*
X168259047Y-83605714D01*
X168211428Y-83510476D01*
X168211428Y-83462857D01*
X168259047Y-83367619D01*
X168306666Y-83320000D01*
X168401904Y-83272380D01*
X168592380Y-83272380D01*
X168687619Y-83320000D01*
X168735238Y-83367619D01*
X168782857Y-83462857D01*
X168782857Y-83510476D01*
X168735238Y-83605714D01*
X168687619Y-83653333D01*
X168592380Y-83700952D01*
X168401904Y-83700952D01*
X168306666Y-83748571D01*
X168259047Y-83796190D01*
X168211428Y-83891428D01*
X168211428Y-84081904D01*
X168259047Y-84177142D01*
X168306666Y-84224761D01*
X168401904Y-84272380D01*
X168592380Y-84272380D01*
X168687619Y-84224761D01*
X168735238Y-84177142D01*
X168782857Y-84081904D01*
X168782857Y-83891428D01*
X168735238Y-83796190D01*
X168687619Y-83748571D01*
X168592380Y-83700952D01*
X77550476Y-45282380D02*
X77550476Y-45996666D01*
X77502857Y-46139523D01*
X77407619Y-46234761D01*
X77264761Y-46282380D01*
X77169523Y-46282380D01*
X78550476Y-46282380D02*
X77979047Y-46282380D01*
X78264761Y-46282380D02*
X78264761Y-45282380D01*
X78169523Y-45425238D01*
X78074285Y-45520476D01*
X77979047Y-45568095D01*
X79026666Y-46282380D02*
X79217142Y-46282380D01*
X79312380Y-46234761D01*
X79360000Y-46187142D01*
X79455238Y-46044285D01*
X79502857Y-45853809D01*
X79502857Y-45472857D01*
X79455238Y-45377619D01*
X79407619Y-45330000D01*
X79312380Y-45282380D01*
X79121904Y-45282380D01*
X79026666Y-45330000D01*
X78979047Y-45377619D01*
X78931428Y-45472857D01*
X78931428Y-45710952D01*
X78979047Y-45806190D01*
X79026666Y-45853809D01*
X79121904Y-45901428D01*
X79312380Y-45901428D01*
X79407619Y-45853809D01*
X79455238Y-45806190D01*
X79502857Y-45710952D01*
X113030476Y-45282380D02*
X113030476Y-45996666D01*
X112982857Y-46139523D01*
X112887619Y-46234761D01*
X112744761Y-46282380D01*
X112649523Y-46282380D01*
X113459047Y-45377619D02*
X113506666Y-45330000D01*
X113601904Y-45282380D01*
X113840000Y-45282380D01*
X113935238Y-45330000D01*
X113982857Y-45377619D01*
X114030476Y-45472857D01*
X114030476Y-45568095D01*
X113982857Y-45710952D01*
X113411428Y-46282380D01*
X114030476Y-46282380D01*
X114649523Y-45282380D02*
X114744761Y-45282380D01*
X114840000Y-45330000D01*
X114887619Y-45377619D01*
X114935238Y-45472857D01*
X114982857Y-45663333D01*
X114982857Y-45901428D01*
X114935238Y-46091904D01*
X114887619Y-46187142D01*
X114840000Y-46234761D01*
X114744761Y-46282380D01*
X114649523Y-46282380D01*
X114554285Y-46234761D01*
X114506666Y-46187142D01*
X114459047Y-46091904D01*
X114411428Y-45901428D01*
X114411428Y-45663333D01*
X114459047Y-45472857D01*
X114506666Y-45377619D01*
X114554285Y-45330000D01*
X114649523Y-45282380D01*
X47822380Y-100249523D02*
X48536666Y-100249523D01*
X48679523Y-100297142D01*
X48774761Y-100392380D01*
X48822380Y-100535238D01*
X48822380Y-100630476D01*
X47917619Y-99820952D02*
X47870000Y-99773333D01*
X47822380Y-99678095D01*
X47822380Y-99440000D01*
X47870000Y-99344761D01*
X47917619Y-99297142D01*
X48012857Y-99249523D01*
X48108095Y-99249523D01*
X48250952Y-99297142D01*
X48822380Y-99868571D01*
X48822380Y-99249523D01*
X48822380Y-98297142D02*
X48822380Y-98868571D01*
X48822380Y-98582857D02*
X47822380Y-98582857D01*
X47965238Y-98678095D01*
X48060476Y-98773333D01*
X48108095Y-98868571D01*
X44450476Y-45282380D02*
X44450476Y-45996666D01*
X44402857Y-46139523D01*
X44307619Y-46234761D01*
X44164761Y-46282380D01*
X44069523Y-46282380D01*
X44879047Y-45377619D02*
X44926666Y-45330000D01*
X45021904Y-45282380D01*
X45260000Y-45282380D01*
X45355238Y-45330000D01*
X45402857Y-45377619D01*
X45450476Y-45472857D01*
X45450476Y-45568095D01*
X45402857Y-45710952D01*
X44831428Y-46282380D01*
X45450476Y-46282380D01*
X45831428Y-45377619D02*
X45879047Y-45330000D01*
X45974285Y-45282380D01*
X46212380Y-45282380D01*
X46307619Y-45330000D01*
X46355238Y-45377619D01*
X46402857Y-45472857D01*
X46402857Y-45568095D01*
X46355238Y-45710952D01*
X45783809Y-46282380D01*
X46402857Y-46282380D01*
X113870476Y-57762380D02*
X113870476Y-58476666D01*
X113822857Y-58619523D01*
X113727619Y-58714761D01*
X113584761Y-58762380D01*
X113489523Y-58762380D01*
X114299047Y-57857619D02*
X114346666Y-57810000D01*
X114441904Y-57762380D01*
X114680000Y-57762380D01*
X114775238Y-57810000D01*
X114822857Y-57857619D01*
X114870476Y-57952857D01*
X114870476Y-58048095D01*
X114822857Y-58190952D01*
X114251428Y-58762380D01*
X114870476Y-58762380D01*
X115203809Y-57762380D02*
X115822857Y-57762380D01*
X115489523Y-58143333D01*
X115632380Y-58143333D01*
X115727619Y-58190952D01*
X115775238Y-58238571D01*
X115822857Y-58333809D01*
X115822857Y-58571904D01*
X115775238Y-58667142D01*
X115727619Y-58714761D01*
X115632380Y-58762380D01*
X115346666Y-58762380D01*
X115251428Y-58714761D01*
X115203809Y-58667142D01*
M02*
