M48
; DRILL file {KiCad (5.1.5)-3} date 11/10/2020 7:03:30 PM
; FORMAT={-:-/ absolute / metric / decimal}
; #@! TF.CreationDate,2020-11-10T19:03:30-08:00
; #@! TF.GenerationSoftware,Kicad,Pcbnew,(5.1.5)-3
; #@! TF.FileFunction,Plated,1,2,PTH
FMAT,2
METRIC
T1C0.400
T2C0.800
T3C1.000
T4C2.540
%
G90
G05
T1
X167.64Y-64.008
X167.64Y-93.98
X169.418Y-64.008
X169.418Y-98.298
X171.196Y-64.008
X171.196Y-95.758
T2
X185.42Y-85.09
X185.42Y-87.63
X185.42Y-90.17
X185.42Y-92.71
X185.42Y-95.25
X185.42Y-97.79
X63.5Y-88.9
X66.04Y-88.9
X68.58Y-88.9
X71.12Y-88.9
X63.5Y-92.71
X66.04Y-92.71
X68.58Y-92.71
X71.12Y-92.71
X50.8Y-45.72
X50.8Y-48.26
X50.8Y-50.8
X50.8Y-53.34
X50.8Y-55.88
X50.8Y-58.42
X50.8Y-60.96
X50.8Y-63.5
X50.8Y-66.04
X50.8Y-68.58
X50.8Y-71.12
X50.8Y-73.66
X50.8Y-76.2
X50.8Y-78.74
X50.8Y-81.28
X50.8Y-83.82
X71.12Y-55.88
X71.12Y-58.42
X71.12Y-60.96
X71.12Y-63.5
X71.12Y-66.04
X71.12Y-68.58
X71.12Y-71.12
X71.12Y-73.66
X71.12Y-76.2
X71.12Y-78.74
X71.12Y-81.28
X71.12Y-83.82
X74.93Y-105.41
X74.93Y-107.95
X77.47Y-105.41
X77.47Y-107.95
X80.01Y-105.41
X80.01Y-107.95
X82.55Y-105.41
X82.55Y-107.95
X85.09Y-105.41
X85.09Y-107.95
X87.63Y-105.41
X87.63Y-107.95
X161.29Y-105.41
X161.29Y-107.95
X163.83Y-105.41
X163.83Y-107.95
X166.37Y-105.41
X166.37Y-107.95
X168.91Y-105.41
X168.91Y-107.95
X171.45Y-105.41
X171.45Y-107.95
X173.99Y-105.41
X173.99Y-107.95
X157.48Y-53.34
X157.48Y-55.88
X157.48Y-58.42
X157.48Y-60.96
X157.48Y-63.5
X157.48Y-66.04
X177.8Y-48.26
X177.8Y-50.8
X177.8Y-53.34
X177.8Y-55.88
X177.8Y-58.42
X177.8Y-60.96
X177.8Y-63.5
X177.8Y-66.04
X177.8Y-68.58
X50.8Y-88.9
X53.34Y-88.9
X55.88Y-88.9
X58.42Y-88.9
X121.92Y-45.72
X121.92Y-48.26
X121.92Y-50.8
X121.92Y-53.34
X121.92Y-55.88
X121.92Y-58.42
X121.92Y-60.96
X121.92Y-63.5
X121.92Y-66.04
X121.92Y-68.58
X121.92Y-71.12
X121.92Y-73.66
X121.92Y-76.2
X121.92Y-78.74
X121.92Y-81.28
X121.92Y-83.82
X124.46Y-91.44
X124.46Y-93.98
X127.0Y-91.44
X127.0Y-93.98
X129.54Y-91.44
X129.54Y-93.98
X132.08Y-91.44
X132.08Y-93.98
X134.62Y-91.44
X134.62Y-93.98
X137.16Y-91.44
X137.16Y-93.98
X139.7Y-91.44
X139.7Y-93.98
X142.24Y-55.88
X142.24Y-58.42
X142.24Y-60.96
X142.24Y-63.5
X142.24Y-66.04
X142.24Y-68.58
X142.24Y-71.12
X142.24Y-73.66
X142.24Y-76.2
X142.24Y-78.74
X142.24Y-81.28
X142.24Y-83.82
X142.24Y-91.44
X142.24Y-93.98
X114.3Y-76.2
X114.3Y-78.74
X114.3Y-81.28
X114.3Y-83.82
X50.8Y-107.95
X53.34Y-107.95
X55.88Y-107.95
X58.42Y-107.95
X157.48Y-83.82
X160.02Y-83.82
X162.56Y-83.82
X165.1Y-83.82
X86.36Y-45.72
X86.36Y-48.26
X86.36Y-50.8
X86.36Y-53.34
X86.36Y-55.88
X86.36Y-58.42
X86.36Y-60.96
X86.36Y-63.5
X86.36Y-66.04
X86.36Y-68.58
X86.36Y-71.12
X86.36Y-73.66
X86.36Y-76.2
X86.36Y-78.74
X86.36Y-81.28
X86.36Y-83.82
X88.9Y-91.44
X88.9Y-93.98
X91.44Y-91.44
X91.44Y-93.98
X93.98Y-91.44
X93.98Y-93.98
X96.52Y-91.44
X96.52Y-93.98
X99.06Y-91.44
X99.06Y-93.98
X101.6Y-91.44
X101.6Y-93.98
X104.14Y-91.44
X104.14Y-93.98
X106.68Y-55.88
X106.68Y-58.42
X106.68Y-60.96
X106.68Y-63.5
X106.68Y-66.04
X106.68Y-68.58
X106.68Y-71.12
X106.68Y-73.66
X106.68Y-76.2
X106.68Y-78.74
X106.68Y-81.28
X106.68Y-83.82
X106.68Y-91.44
X106.68Y-93.98
X157.48Y-80.01
X160.02Y-80.01
X162.56Y-80.01
X165.1Y-80.01
X78.74Y-76.2
X78.74Y-78.74
X78.74Y-81.28
X78.74Y-83.82
X132.08Y-105.41
X132.08Y-107.95
X134.62Y-105.41
X134.62Y-107.95
X137.16Y-105.41
X137.16Y-107.95
X139.7Y-105.41
X139.7Y-107.95
X142.24Y-105.41
X142.24Y-107.95
X50.8Y-92.71
X53.34Y-92.71
X55.88Y-92.71
X58.42Y-92.71
T3
X78.74Y-48.26
X78.74Y-50.8
X114.3Y-53.34
X114.3Y-55.88
X45.64Y-48.26
X45.64Y-50.8
X106.59Y-107.87
X109.13Y-107.87
X111.67Y-107.87
X114.21Y-107.87
X116.75Y-107.87
X119.29Y-107.87
X114.22Y-48.26
X114.22Y-50.8
X50.8Y-99.06
X53.34Y-99.06
T4
X45.72Y-40.64
X45.72Y-104.14
X185.42Y-104.14
X185.42Y-40.64
T0
M30
